<svg width="278" height="68" viewBox="0 0 278 68" fill="none" xmlns="http://www.w3.org/2000/svg">
<g filter="url(#filter0_d_328_28)">
<mask id="path-1-outside-1_328_28" maskUnits="userSpaceOnUse" x="2.6127" y="31.0623" width="30.4906" height="30.866" fill="black">
<rect fill="white" x="2.6127" y="31.0623" width="30.4906" height="30.866"/>
<path d="M24.7309 42.3285C25.6909 44.018 26.1722 45.6298 26.1749 47.1641C26.1747 48.6934 25.7862 50.0741 25.0095 51.3062C24.2299 52.5334 23.1534 53.5372 21.7801 54.3176C20.3969 55.1036 18.9773 55.5149 17.5212 55.5515C16.0672 55.5805 14.6833 55.2036 13.3694 54.421C12.0577 53.6306 10.9246 52.3957 9.97021 50.7161C9.01019 49.0266 8.52779 47.4186 8.52301 45.8921C8.52037 44.3579 8.90637 42.9786 9.68101 41.7542C10.4578 40.522 11.5378 39.513 12.921 38.727C14.2943 37.9466 15.709 37.5381 17.1651 37.5015C18.6184 37.4599 20.0033 37.8328 21.32 38.6204C22.6339 39.403 23.7708 40.639 24.7309 42.3285ZM20.4924 44.737C19.9759 43.828 19.4197 43.1311 18.824 42.6462C18.2304 42.1536 17.6077 41.88 16.9559 41.8256C16.3063 41.7634 15.6406 41.926 14.9589 42.3134C14.2772 42.7008 13.7943 43.1908 13.5103 43.7836C13.2284 44.3685 13.1447 45.0435 13.2591 45.8084C13.3757 46.5656 13.6922 47.3986 14.2087 48.3076C14.7252 49.2165 15.2803 49.9173 15.8739 50.41C16.4696 50.8949 17.0923 51.1684 17.742 51.2306C18.3937 51.285 19.0604 51.1185 19.7422 50.7311C20.4239 50.3438 20.9057 49.8576 21.1876 49.2726C21.4716 48.6799 21.5553 48.005 21.4388 47.2478C21.3243 46.4829 21.0089 45.6459 20.4924 44.737Z"/>
</mask>
<path d="M24.7309 42.3285C25.6909 44.018 26.1722 45.6298 26.1749 47.1641C26.1747 48.6934 25.7862 50.0741 25.0095 51.3062C24.2299 52.5334 23.1534 53.5372 21.7801 54.3176C20.3969 55.1036 18.9773 55.5149 17.5212 55.5515C16.0672 55.5805 14.6833 55.2036 13.3694 54.421C12.0577 53.6306 10.9246 52.3957 9.97021 50.7161C9.01019 49.0266 8.52779 47.4186 8.52301 45.8921C8.52037 44.3579 8.90637 42.9786 9.68101 41.7542C10.4578 40.522 11.5378 39.513 12.921 38.727C14.2943 37.9466 15.709 37.5381 17.1651 37.5015C18.6184 37.4599 20.0033 37.8328 21.32 38.6204C22.6339 39.403 23.7708 40.639 24.7309 42.3285ZM20.4924 44.737C19.9759 43.828 19.4197 43.1311 18.824 42.6462C18.2304 42.1536 17.6077 41.88 16.9559 41.8256C16.3063 41.7634 15.6406 41.926 14.9589 42.3134C14.2772 42.7008 13.7943 43.1908 13.5103 43.7836C13.2284 44.3685 13.1447 45.0435 13.2591 45.8084C13.3757 46.5656 13.6922 47.3986 14.2087 48.3076C14.7252 49.2165 15.2803 49.9173 15.8739 50.41C16.4696 50.8949 17.0923 51.1684 17.742 51.2306C18.3937 51.285 19.0604 51.1185 19.7422 50.7311C20.4239 50.3438 20.9057 49.8576 21.1876 49.2726C21.4716 48.6799 21.5553 48.005 21.4388 47.2478C21.3243 46.4829 21.0089 45.6459 20.4924 44.737Z" fill="#003746"/>
<path d="M26.1749 47.1641L28.1749 47.1643L28.1749 47.1606L26.1749 47.1641ZM25.0095 51.3062L26.6976 52.3787L26.7013 52.3728L25.0095 51.3062ZM17.5212 55.5515L17.5609 57.5512L17.5715 57.5509L17.5212 55.5515ZM13.3694 54.421L12.3372 56.1341L12.3459 56.1393L13.3694 54.421ZM8.52301 45.8921L6.52301 45.8956L6.52302 45.8984L8.52301 45.8921ZM9.68101 41.7542L11.3712 42.8235L11.3729 42.8208L9.68101 41.7542ZM17.1651 37.5015L17.2154 39.5008L17.2223 39.5006L17.1651 37.5015ZM21.32 38.6204L20.2934 40.3368L20.2965 40.3387L21.32 38.6204ZM18.824 42.6462L17.5467 44.1853L17.5541 44.1914L17.5615 44.1974L18.824 42.6462ZM16.9559 41.8256L16.7654 43.8165L16.7774 43.8177L16.7895 43.8187L16.9559 41.8256ZM13.5103 43.7836L15.312 44.6518L15.3139 44.6479L13.5103 43.7836ZM13.2591 45.8084L11.2811 46.1043L11.2824 46.1127L13.2591 45.8084ZM15.8739 50.41L14.5967 51.949L14.604 51.9551L14.6114 51.9611L15.8739 50.41ZM17.742 51.2306L17.5514 53.2215L17.5635 53.2226L17.5755 53.2236L17.742 51.2306ZM21.1876 49.2726L22.9893 50.1409L22.9912 50.1369L21.1876 49.2726ZM21.4388 47.2478L19.4608 47.5437L19.4621 47.5521L21.4388 47.2478ZM22.992 43.3166C23.8261 44.7845 24.173 46.0589 24.1749 47.1675L28.1749 47.1606C28.1715 45.2008 27.5557 43.2515 26.4697 41.3404L22.992 43.3166ZM24.1749 47.1639C24.1747 48.3355 23.8828 49.3431 23.3176 50.2396L26.7013 52.3728C27.6896 50.8051 28.1747 49.0512 28.1749 47.1643L24.1749 47.1639ZM23.3213 50.2338C22.7319 51.1615 21.9061 51.9456 20.792 52.5787L22.7682 56.0564C24.4007 55.1288 25.7278 53.9053 26.6976 52.3786L23.3213 50.2338ZM20.792 52.5787C19.6682 53.2173 18.5679 53.5245 17.4708 53.5522L17.5715 57.5509C19.3866 57.5052 21.1257 56.9898 22.7682 56.0564L20.792 52.5787ZM17.4814 53.5519C16.4209 53.573 15.403 53.3044 14.3929 52.7027L12.3459 56.1393C13.9636 57.1028 15.7135 57.5879 17.5609 57.5511L17.4814 53.5519ZM14.4016 52.7079C13.451 52.1351 12.5375 51.1859 11.7091 49.728L8.23134 51.7041C9.31168 53.6054 10.6644 55.1261 12.3373 56.1341L14.4016 52.7079ZM11.7091 49.728C10.8736 48.2577 10.5264 46.9864 10.523 45.8859L6.52302 45.8984C6.52913 47.8509 7.14673 49.7954 8.23134 51.7041L11.7091 49.728ZM10.523 45.8887C10.521 44.7107 10.8117 43.7077 11.3711 42.8235L7.99088 40.6849C7.00101 42.2494 6.51975 44.005 6.52302 45.8956L10.523 45.8887ZM11.3729 42.8208C11.9581 41.8924 12.7852 41.1045 13.9091 40.4659L11.9329 36.9881C10.2903 37.9215 8.95745 39.1517 7.98916 40.6876L11.3729 42.8208ZM13.9091 40.4659C15.0208 39.8341 16.116 39.5285 17.2154 39.5008L17.1147 35.5021C15.302 35.5477 13.5678 36.0591 11.9329 36.9881L13.9091 40.4659ZM17.2223 39.5006C18.2733 39.4706 19.2847 39.7335 20.2934 40.3368L22.3467 36.904C20.722 35.9322 18.9635 35.4492 17.1079 35.5023L17.2223 39.5006ZM20.2965 40.3387C21.2425 40.9022 22.1577 41.8484 22.992 43.3166L26.4697 41.3404C25.384 39.4297 24.0253 37.9038 22.3435 36.9021L20.2965 40.3387ZM22.2312 43.7489C21.6336 42.6972 20.9303 41.7818 20.0865 41.0951L17.5615 44.1974C17.9092 44.4804 18.3181 44.9589 18.7535 45.7251L22.2312 43.7489ZM20.1012 41.1072C19.2505 40.4012 18.2513 39.9268 17.1224 39.8326L16.7895 43.8187C16.9641 43.8333 17.2102 43.906 17.5467 44.1853L20.1012 41.1072ZM17.1465 39.8347C16.0106 39.726 14.9366 40.0257 13.9708 40.5746L15.947 44.0523C16.3446 43.8264 16.602 43.8009 16.7654 43.8165L17.1465 39.8347ZM13.9708 40.5746C13.0043 41.1237 12.1988 41.8923 11.7067 42.9193L15.3139 44.6479C15.3898 44.4894 15.55 44.2779 15.947 44.0523L13.9708 40.5746ZM11.7086 42.9153C11.2213 43.9264 11.1189 45.0198 11.2811 46.1043L15.2371 45.5125C15.1705 45.0672 15.2355 44.8106 15.312 44.6518L11.7086 42.9153ZM11.2824 46.1127C11.4468 47.1805 11.8741 48.2472 12.4698 49.2957L15.9476 47.3195C15.5104 46.5501 15.3046 45.9506 15.2358 45.5041L11.2824 46.1127ZM12.4698 49.2957C13.066 50.3448 13.764 51.258 14.5967 51.949L17.1511 48.8709C16.7965 48.5766 16.3844 48.0882 15.9476 47.3195L12.4698 49.2957ZM14.6114 51.9611C15.4579 52.6501 16.4434 53.1154 17.5514 53.2215L17.9325 49.2397C17.7412 49.2214 17.4814 49.1396 17.1364 48.8588L14.6114 51.9611ZM17.5755 53.2236C18.7032 53.3178 19.769 53.0162 20.7303 52.47L18.7541 48.9923C18.3518 49.2208 18.0842 49.2522 17.9084 49.2375L17.5755 53.2236ZM20.7303 52.47C21.6908 51.9242 22.4971 51.1623 22.9893 50.1409L19.3859 48.4044C19.3143 48.5529 19.157 48.7633 18.7541 48.9923L20.7303 52.47ZM22.9912 50.1369C23.4767 49.1238 23.5829 48.0311 23.4155 46.9435L19.4621 47.5521C19.5278 47.9789 19.4665 48.2361 19.384 48.4083L22.9912 50.1369ZM23.4168 46.9519C23.2556 45.8744 22.8293 44.8013 22.2312 43.7489L18.7535 45.7251C19.1885 46.4906 19.3931 47.0914 19.4608 47.5437L23.4168 46.9519Z" fill="white" mask="url(#path-1-outside-1_328_28)"/>
<mask id="path-3-outside-2_328_28" maskUnits="userSpaceOnUse" x="26.0078" y="20.8814" width="27.1884" height="28.2088" fill="black">
<rect fill="white" x="26.0078" y="20.8814" width="27.1884" height="28.2088"/>
<path d="M42.793 24.3307L49.8515 40.2944L46.2348 41.8936L36.7582 36.0569L36.6646 36.0983L40.3731 44.4854L36.0392 46.4017L28.9807 30.438L32.6598 28.8113L42.0291 34.6581L42.1538 34.603L38.4591 26.247L42.793 24.3307Z"/>
</mask>
<path d="M42.793 24.3307L49.8515 40.2944L46.2348 41.8936L36.7582 36.0569L36.6646 36.0983L40.3731 44.4854L36.0392 46.4017L28.9807 30.438L32.6598 28.8113L42.0291 34.6581L42.1538 34.603L38.4591 26.247L42.793 24.3307Z" fill="#003746"/>
<path d="M42.793 24.3307L44.6222 23.522L43.8134 21.6928L41.9842 22.5016L42.793 24.3307ZM49.8515 40.2944L50.6603 42.1236L52.4895 41.3148L51.6807 39.4856L49.8515 40.2944ZM46.2348 41.8936L45.1859 43.5965L46.0815 44.1481L47.0436 43.7228L46.2348 41.8936ZM36.7582 36.0569L37.807 34.354L36.9114 33.8024L35.9494 34.2277L36.7582 36.0569ZM36.6646 36.0983L35.8558 34.2691L34.0267 35.0779L34.8355 36.907L36.6646 36.0983ZM40.3731 44.4854L41.1819 46.3146L43.0111 45.5058L42.2023 43.6766L40.3731 44.4854ZM36.0392 46.4017L34.2101 47.2105L35.0189 49.0396L36.848 48.2309L36.0392 46.4017ZM28.9807 30.438L28.1719 28.6089L26.3427 29.4177L27.1515 31.2468L28.9807 30.438ZM32.6598 28.8113L33.7187 27.1145L32.8199 26.5537L31.851 26.9821L32.6598 28.8113ZM42.0291 34.6581L40.9703 36.3549L41.869 36.9157L42.8379 36.4873L42.0291 34.6581ZM42.1538 34.603L42.9626 36.4322L44.7918 35.6234L43.983 33.7942L42.1538 34.603ZM38.4591 26.247L37.6503 24.4179L35.8212 25.2266L36.6299 27.0558L38.4591 26.247ZM40.9638 25.1395L48.0224 41.1032L51.6807 39.4856L44.6222 23.522L40.9638 25.1395ZM49.0427 38.4652L45.426 40.0644L47.0436 43.7228L50.6603 42.1236L49.0427 38.4652ZM47.2836 40.1907L37.807 34.354L35.7093 37.7598L45.1859 43.5965L47.2836 40.1907ZM35.9494 34.2277L35.8558 34.2691L37.4734 37.9274L37.567 37.8861L35.9494 34.2277ZM34.8355 36.907L38.544 45.2942L42.2023 43.6766L38.4938 35.2895L34.8355 36.907ZM39.5643 42.6562L35.2304 44.5725L36.848 48.2309L41.1819 46.3146L39.5643 42.6562ZM37.8684 45.5929L30.8099 29.6292L27.1515 31.2468L34.2101 47.2105L37.8684 45.5929ZM29.7895 32.2672L33.4686 30.6404L31.851 26.9821L28.1719 28.6089L29.7895 32.2672ZM31.601 30.508L40.9703 36.3549L43.0879 32.9614L33.7187 27.1145L31.601 30.508ZM42.8379 36.4873L42.9626 36.4322L41.345 32.7738L41.2203 32.829L42.8379 36.4873ZM43.983 33.7942L40.2883 25.4382L36.6299 27.0558L40.3246 35.4118L43.983 33.7942ZM39.2679 28.0762L43.6018 26.1599L41.9842 22.5016L37.6503 24.4179L39.2679 28.0762Z" fill="white" mask="url(#path-3-outside-2_328_28)"/>
<mask id="path-5-outside-3_328_28" maskUnits="userSpaceOnUse" x="48.7194" y="12.2983" width="28.0568" height="28.6967" fill="black">
<rect fill="white" x="48.7194" y="12.2983" width="28.0568" height="28.6967"/>
<path d="M70.3138 23.9347C70.9175 25.7817 71.0676 27.4572 70.7641 28.9611C70.4589 30.4596 69.8028 31.7351 68.7958 32.7875C67.7871 33.8345 66.532 34.6034 65.0306 35.0941C63.5184 35.5884 62.0453 35.7082 60.6111 35.4537C59.1806 35.1919 57.8997 34.5466 56.7684 33.5176C55.6407 32.4815 54.7767 31.0453 54.1766 29.209C53.5729 27.362 53.421 25.6901 53.7208 24.1934C54.0243 22.6894 54.6777 21.4148 55.681 20.3696C56.688 19.3172 57.9475 18.5439 59.4597 18.0496C60.9611 17.5589 62.4289 17.4408 63.863 17.6954C65.2954 17.9445 66.5781 18.5863 67.7112 19.6207C68.8426 20.6496 69.7101 22.0877 70.3138 23.9347ZM65.68 25.4492C65.3552 24.4555 64.9493 23.6616 64.4622 23.0676C63.9788 22.4665 63.4232 22.0742 62.7954 21.8909C62.1713 21.7004 61.4865 21.7269 60.7412 21.9705C59.9959 22.2141 59.425 22.5979 59.0285 23.1221C58.6355 23.6391 58.4188 24.2837 58.3784 25.0561C58.3416 25.8213 58.4855 26.7008 58.8103 27.6945C59.1351 28.6882 59.5392 29.4857 60.0226 30.0868C60.5097 30.6808 61.0653 31.0731 61.6895 31.2636C62.3173 31.4469 63.0038 31.4168 63.7491 31.1732C64.4944 30.9296 65.0635 30.5493 65.4564 30.0324C65.853 29.5082 66.0697 28.8636 66.1065 28.0984C66.147 27.326 66.0048 26.4429 65.68 25.4492Z"/>
</mask>
<path d="M70.3138 23.9347C70.9175 25.7817 71.0676 27.4572 70.7641 28.9611C70.4589 30.4596 69.8028 31.7351 68.7958 32.7875C67.7871 33.8345 66.532 34.6034 65.0306 35.0941C63.5184 35.5884 62.0453 35.7082 60.6111 35.4537C59.1806 35.1919 57.8997 34.5466 56.7684 33.5176C55.6407 32.4815 54.7767 31.0453 54.1766 29.209C53.5729 27.362 53.421 25.6901 53.7208 24.1934C54.0243 22.6894 54.6777 21.4148 55.681 20.3696C56.688 19.3172 57.9475 18.5439 59.4597 18.0496C60.9611 17.5589 62.4289 17.4408 63.863 17.6954C65.2954 17.9445 66.5781 18.5863 67.7112 19.6207C68.8426 20.6496 69.7101 22.0877 70.3138 23.9347ZM65.68 25.4492C65.3552 24.4555 64.9493 23.6616 64.4622 23.0676C63.9788 22.4665 63.4232 22.0742 62.7954 21.8909C62.1713 21.7004 61.4865 21.7269 60.7412 21.9705C59.9959 22.2141 59.425 22.5979 59.0285 23.1221C58.6355 23.6391 58.4188 24.2837 58.3784 25.0561C58.3416 25.8213 58.4855 26.7008 58.8103 27.6945C59.1351 28.6882 59.5392 29.4857 60.0226 30.0868C60.5097 30.6808 61.0653 31.0731 61.6895 31.2636C62.3173 31.4469 63.0038 31.4168 63.7491 31.1732C64.4944 30.9296 65.0635 30.5493 65.4564 30.0324C65.853 29.5082 66.0697 28.8636 66.1065 28.0984C66.147 27.326 66.0048 26.4429 65.68 25.4492Z" fill="#003746"/>
<path d="M70.7641 28.9611L72.7239 29.3603L72.7246 29.3567L70.7641 28.9611ZM68.7958 32.7875L70.2361 34.1752L70.2409 34.1702L68.7958 32.7875ZM60.6111 35.4537L60.2512 37.421L60.2616 37.4229L60.6111 35.4537ZM56.7684 33.5176L55.4152 34.9904L55.4227 34.9972L56.7684 33.5176ZM53.7208 24.1934L51.7603 23.7978L51.7597 23.8005L53.7208 24.1934ZM55.681 20.3696L57.1238 21.7546L57.1261 21.7523L55.681 20.3696ZM63.863 17.6954L63.5135 19.6646L63.5203 19.6658L63.863 17.6954ZM67.7112 19.6207L66.3628 21.0978L66.3655 21.1002L67.7112 19.6207ZM64.4622 23.0676L62.9036 24.3209L62.9096 24.3284L62.9157 24.3358L64.4622 23.0676ZM62.7954 21.8909L62.2115 23.8037L62.2231 23.8073L62.2347 23.8107L62.7954 21.8909ZM59.0285 23.1221L60.6207 24.3323L60.6234 24.3288L59.0285 23.1221ZM58.3784 25.0561L56.3811 24.9515L56.3807 24.96L58.3784 25.0561ZM60.0226 30.0868L58.4641 31.3401L58.47 31.3476L58.4761 31.3549L60.0226 30.0868ZM61.6895 31.2636L61.1056 33.1765L61.1172 33.18L61.1288 33.1834L61.6895 31.2636ZM65.4564 30.0324L67.0487 31.2426L67.0514 31.2391L65.4564 30.0324ZM66.1065 28.0984L64.1092 27.9937L64.1088 28.0022L66.1065 28.0984ZM68.4127 24.556C68.9372 26.1608 69.0229 27.4788 68.8036 28.5655L72.7246 29.3567C73.1122 27.4356 72.8977 25.4026 72.2148 23.3133L68.4127 24.556ZM68.8043 28.5619C68.5705 29.71 68.0834 30.6391 67.3507 31.4048L70.2409 34.1702C71.5221 32.8311 72.3472 31.2093 72.7239 29.3603L68.8043 28.5619ZM67.3555 31.3999C66.5929 32.1914 65.6273 32.795 64.4093 33.1931L65.652 36.9951C67.4367 36.4118 68.9812 35.4777 70.2361 34.1752L67.3555 31.3999ZM64.4093 33.1931C63.1806 33.5947 62.0412 33.6762 60.9607 33.4844L60.2616 37.4229C62.0493 37.7402 63.8562 37.5821 65.652 36.9951L64.4093 33.1931ZM60.9711 33.4863C59.9277 33.2954 58.9838 32.8291 58.1141 32.038L55.4227 34.9972C56.8156 36.2641 58.4336 37.0885 60.2512 37.421L60.9711 33.4863ZM58.1215 32.0449C57.3043 31.294 56.5986 30.1816 56.0776 28.5877L52.2755 29.8304C52.9549 31.9089 53.9771 33.669 55.4152 34.9903L58.1215 32.0449ZM56.0776 28.5877C55.5523 26.9804 55.4657 25.6653 55.6818 24.5862L51.7597 23.8005C51.3762 25.715 51.5935 27.7437 52.2755 29.8304L56.0776 28.5877ZM55.6813 24.589C55.9143 23.4343 56.3993 22.5094 57.1238 21.7546L54.2381 18.9846C52.9561 20.3203 52.1343 21.9446 51.7603 23.7978L55.6813 24.589ZM57.1261 21.7523C57.8848 20.9593 58.8524 20.3522 60.0811 19.9506L58.8384 16.1486C57.0426 16.7355 55.4911 17.6751 54.2359 18.9869L57.1261 21.7523ZM60.0811 19.9506C61.2965 19.5534 62.4306 19.4724 63.5135 19.6646L64.2125 15.7261C62.4271 15.4092 60.6257 15.5644 58.8384 16.1486L60.0811 19.9506ZM63.5203 19.6658C64.5561 19.8459 65.4948 20.3053 66.3628 21.0977L69.0596 18.1436C67.6614 16.8672 66.0347 16.0431 64.2057 15.7249L63.5203 19.6658ZM66.3655 21.1002C67.1801 21.8411 67.8881 22.9509 68.4127 24.556L72.2148 23.3133C71.5321 21.2244 70.505 19.4582 69.0569 18.1411L66.3655 21.1002ZM67.581 24.8279C67.2052 23.678 66.6986 22.6408 66.0088 21.7995L62.9157 24.3358C63.1999 24.6824 63.5052 25.2329 63.779 26.0705L67.581 24.8279ZM66.0208 21.8143C65.3281 20.9528 64.4435 20.2887 63.3561 19.9711L62.2347 23.8107C62.4029 23.8598 62.6296 23.9801 62.9036 24.3209L66.0208 21.8143ZM63.3793 19.978C62.2879 19.6449 61.1758 19.7243 60.1199 20.0695L61.3626 23.8715C61.7973 23.7294 62.0546 23.7558 62.2115 23.8037L63.3793 19.978ZM60.1199 20.0695C59.0633 20.4148 58.1206 21.0072 57.4335 21.9154L60.6234 24.3288C60.7294 24.1887 60.9286 24.0134 61.3626 23.8715L60.1199 20.0695ZM57.4362 21.9119C56.757 22.8054 56.4385 23.8564 56.3811 24.9515L60.3756 25.1607C60.3992 24.7111 60.5141 24.4727 60.6207 24.3323L57.4362 21.9119ZM56.3807 24.96C56.3288 26.0391 56.5347 27.1696 56.9093 28.3159L60.7114 27.0732C60.4364 26.232 60.3544 25.6035 60.3761 25.1522L56.3807 24.96ZM56.9093 28.3159C57.2842 29.4629 57.786 30.4969 58.4641 31.3401L61.5812 28.8335C61.2925 28.4744 60.9861 27.9136 60.7114 27.0732L56.9093 28.3159ZM58.4761 31.3549C59.1681 32.199 60.041 32.8515 61.1056 33.1765L62.2733 29.3507C62.0896 29.2946 61.8512 29.1627 61.5692 28.8187L58.4761 31.3549ZM61.1288 33.1834C62.215 33.5006 63.3196 33.4177 64.3704 33.0743L63.1278 29.2722C62.688 29.4159 62.4195 29.3933 62.2501 29.3438L61.1288 33.1834ZM64.3704 33.0743C65.4205 32.731 66.3626 32.1453 67.0487 31.2426L63.8641 28.8222C63.7644 28.9534 63.5682 29.1282 63.1278 29.2722L64.3704 33.0743ZM67.0514 31.2391C67.7292 30.3432 68.0513 29.2936 68.1042 28.1945L64.1088 28.0022C64.0881 28.4335 63.9768 28.6733 63.8615 28.8257L67.0514 31.2391ZM68.1038 28.203C68.1607 27.115 67.9571 25.9784 67.581 24.8279L63.779 26.0705C64.0525 26.9074 64.1332 27.537 64.1092 27.9937L68.1038 28.203Z" fill="white" mask="url(#path-5-outside-3_328_28)"/>
<mask id="path-7-outside-4_328_28" maskUnits="userSpaceOnUse" x="74.3826" y="5.85621" width="28.9553" height="26.6289" fill="black">
<rect fill="white" x="74.3826" y="5.85621" width="28.9553" height="26.6289"/>
<path d="M76.9813 13.0054L82.7555 11.8047L88.7401 20.6581L88.9403 20.6165L90.8995 10.1112L96.6737 8.91054L100.227 25.9995L95.6879 26.9434L93.6336 17.0639L93.5 17.0916L91.7217 27.6289L88.9848 28.198L83.1393 19.1764L83.0058 19.2042L85.0741 29.1505L80.5348 30.0944L76.9813 13.0054Z"/>
</mask>
<path d="M76.9813 13.0054L82.7555 11.8047L88.7401 20.6581L88.9403 20.6165L90.8995 10.1112L96.6737 8.91054L100.227 25.9995L95.6879 26.9434L93.6336 17.0639L93.5 17.0916L91.7217 27.6289L88.9848 28.198L83.1393 19.1764L83.0058 19.2042L85.0741 29.1505L80.5348 30.0944L76.9813 13.0054Z" fill="#003746"/>
<path d="M76.9813 13.0054L76.5741 11.0473L74.616 11.4545L75.0232 13.4126L76.9813 13.0054ZM82.7555 11.8047L84.4124 10.6847L83.6614 9.57356L82.3483 9.84661L82.7555 11.8047ZM88.7401 20.6581L87.0831 21.7782L87.8342 22.8893L89.1473 22.6162L88.7401 20.6581ZM88.9403 20.6165L89.3475 22.5746L90.6606 22.3015L90.9065 20.9831L88.9403 20.6165ZM90.8995 10.1112L90.4923 8.15313L89.1792 8.42617L88.9334 9.74458L90.8995 10.1112ZM96.6737 8.91054L98.6318 8.50336L98.2246 6.54525L96.2665 6.95242L96.6737 8.91054ZM100.227 25.9995L100.634 27.9576L102.592 27.5505L102.185 25.5924L100.227 25.9995ZM95.6879 26.9434L93.7298 27.3506L94.137 29.3087L96.0951 28.9015L95.6879 26.9434ZM93.6336 17.0639L95.5917 16.6567L95.1845 14.6986L93.2264 15.1057L93.6336 17.0639ZM93.5 17.0916L93.0929 15.1335L91.7553 15.4116L91.5279 16.7588L93.5 17.0916ZM91.7217 27.6289L92.1289 29.587L93.4665 29.3089L93.6938 27.9617L91.7217 27.6289ZM88.9848 28.198L87.3063 29.2856L88.0511 30.435L89.392 30.1561L88.9848 28.198ZM83.1393 19.1764L84.8178 18.0889L84.073 16.9395L82.7321 17.2183L83.1393 19.1764ZM83.0058 19.2042L82.5986 17.2461L80.6405 17.6532L81.0477 19.6114L83.0058 19.2042ZM85.0741 29.1505L85.4812 31.1086L87.4394 30.7014L87.0322 28.7433L85.0741 29.1505ZM80.5348 30.0944L78.5767 30.5016L78.9839 32.4597L80.942 32.0525L80.5348 30.0944ZM77.3885 14.9635L83.1627 13.7628L82.3483 9.84661L76.5741 11.0473L77.3885 14.9635ZM81.0985 12.9248L87.0831 21.7782L90.397 19.5381L84.4124 10.6847L81.0985 12.9248ZM89.1473 22.6162L89.3475 22.5746L88.5332 18.6584L88.3329 18.7L89.1473 22.6162ZM90.9065 20.9831L92.8656 10.4779L88.9334 9.74458L86.9742 20.2498L90.9065 20.9831ZM91.3066 12.0694L97.0808 10.8686L96.2665 6.95242L90.4923 8.15313L91.3066 12.0694ZM94.7156 9.31771L98.2691 26.4067L102.185 25.5924L98.6318 8.50336L94.7156 9.31771ZM99.82 24.0414L95.2808 24.9853L96.0951 28.9015L100.634 27.9576L99.82 24.0414ZM97.646 26.5363L95.5917 16.6567L91.6754 17.471L93.7298 27.3506L97.646 26.5363ZM93.2264 15.1057L93.0929 15.1335L93.9072 19.0497L94.0407 19.022L93.2264 15.1057ZM91.5279 16.7588L89.7496 27.2961L93.6938 27.9617L95.4722 17.4244L91.5279 16.7588ZM91.3145 25.6708L88.5776 26.2399L89.392 30.1561L92.1289 29.587L91.3145 25.6708ZM90.6633 27.1105L84.8178 18.0889L81.4609 20.264L87.3063 29.2856L90.6633 27.1105ZM82.7321 17.2183L82.5986 17.2461L83.413 21.1623L83.5465 21.1345L82.7321 17.2183ZM81.0477 19.6114L83.116 29.5577L87.0322 28.7433L84.9639 18.797L81.0477 19.6114ZM84.6669 27.1924L80.1276 28.1363L80.942 32.0525L85.4812 31.1086L84.6669 27.1924ZM82.4929 29.6872L78.9394 12.5982L75.0232 13.4126L78.5767 30.5016L82.4929 29.6872Z" fill="white" mask="url(#path-7-outside-4_328_28)"/>
<mask id="path-9-outside-5_328_28" maskUnits="userSpaceOnUse" x="101.765" y="3.04018" width="26.9574" height="24.2527" fill="black">
<rect fill="white" x="101.765" y="3.04018" width="26.9574" height="24.2527"/>
<path d="M112.266 24.4877L107.175 24.9684L111.27 7.04957L117.718 6.44069L125.095 23.2764L120.004 23.7571L115.014 11.5243L114.878 11.5371L112.266 24.4877ZM110.668 17.7216L120.239 16.8179L120.572 20.3476L111.001 21.2513L110.668 17.7216Z"/>
</mask>
<path d="M112.266 24.4877L107.175 24.9684L111.27 7.04957L117.718 6.44069L125.095 23.2764L120.004 23.7571L115.014 11.5243L114.878 11.5371L112.266 24.4877ZM110.668 17.7216L120.239 16.8179L120.572 20.3476L111.001 21.2513L110.668 17.7216Z" fill="#003746"/>
<path d="M112.266 24.4877L112.454 26.4789L113.932 26.3392L114.226 24.8832L112.266 24.4877ZM107.175 24.9684L105.225 24.5228L104.609 27.2196L107.363 26.9596L107.175 24.9684ZM111.27 7.04957L111.082 5.05843L109.642 5.19436L109.32 6.60399L111.27 7.04957ZM117.718 6.44069L119.55 5.63804L118.97 4.31362L117.53 4.44954L117.718 6.44069ZM125.095 23.2764L125.283 25.2675L128.037 25.0075L126.927 22.4737L125.095 23.2764ZM120.004 23.7571L118.152 24.5125L118.713 25.8878L120.192 25.7482L120.004 23.7571ZM115.014 11.5243L116.866 10.7688L116.304 9.39348L114.826 9.53311L115.014 11.5243ZM114.878 11.5371L114.69 9.54593L113.211 9.68556L112.917 11.1416L114.878 11.5371ZM110.668 17.7216L110.48 15.7304L108.489 15.9184L108.677 17.9096L110.668 17.7216ZM120.239 16.8179L122.23 16.6299L122.042 14.6387L120.051 14.8267L120.239 16.8179ZM120.572 20.3476L120.76 22.3388L122.751 22.1508L122.563 20.1596L120.572 20.3476ZM111.001 21.2513L109.01 21.4393L109.198 23.4305L111.189 23.2425L111.001 21.2513ZM112.078 22.4966L106.987 22.9773L107.363 26.9596L112.454 26.4789L112.078 22.4966ZM109.124 25.414L113.219 7.49515L109.32 6.60399L105.225 24.5228L109.124 25.414ZM111.458 9.04072L117.906 8.43183L117.53 4.44954L111.082 5.05843L111.458 9.04072ZM115.886 7.24333L123.263 24.079L126.927 22.4737L119.55 5.63804L115.886 7.24333ZM124.907 21.2852L119.816 21.7659L120.192 25.7482L125.283 25.2675L124.907 21.2852ZM121.856 23.0016L116.866 10.7688L113.162 12.2797L118.152 24.5125L121.856 23.0016ZM114.826 9.53311L114.69 9.54593L115.066 13.5282L115.202 13.5154L114.826 9.53311ZM112.917 11.1416L110.305 24.0923L114.226 24.8832L116.838 11.9325L112.917 11.1416ZM110.856 19.7127L120.427 18.809L120.051 14.8267L110.48 15.7304L110.856 19.7127ZM118.248 17.0059L118.581 20.5356L122.563 20.1596L122.23 16.6299L118.248 17.0059ZM120.384 18.3565L110.813 19.2602L111.189 23.2425L120.76 22.3388L120.384 18.3565ZM112.992 21.0633L112.659 17.5336L108.677 17.9096L109.01 21.4393L112.992 21.0633Z" fill="white" mask="url(#path-9-outside-5_328_28)"/>
<mask id="path-11-outside-6_328_28" maskUnits="userSpaceOnUse" x="129.281" y="2.99161" width="20.0919" height="22.0835" fill="black">
<rect fill="white" x="129.281" y="2.99161" width="20.0919" height="22.0835"/>
<path d="M131.994 9.36626L132.01 5.54812L147.18 5.61159L147.164 9.42974L141.914 9.40777L141.857 23.044L137.187 23.0245L137.244 9.38823L131.994 9.36626Z"/>
</mask>
<path d="M131.994 9.36626L132.01 5.54812L147.18 5.61159L147.164 9.42974L141.914 9.40777L141.857 23.044L137.187 23.0245L137.244 9.38823L131.994 9.36626Z" fill="#003746"/>
<path d="M131.994 9.36626L129.994 9.3579L129.985 11.3579L131.985 11.3662L131.994 9.36626ZM132.01 5.54812L132.018 3.54813L130.018 3.53976L130.01 5.53975L132.01 5.54812ZM147.18 5.61159L149.18 5.61996L149.188 3.61998L147.188 3.61161L147.18 5.61159ZM147.164 9.42974L147.156 11.4297L149.156 11.4381L149.164 9.43811L147.164 9.42974ZM141.914 9.40777L141.923 7.40779L139.923 7.39942L139.914 9.3994L141.914 9.40777ZM141.857 23.044L141.849 25.044L143.849 25.0524L143.857 23.0524L141.857 23.044ZM137.187 23.0245L135.187 23.0161L135.178 25.0161L137.178 25.0245L137.187 23.0245ZM137.244 9.38823L139.244 9.3966L139.252 7.39662L137.252 7.38825L137.244 9.38823ZM133.994 9.37463L134.01 5.55648L130.01 5.53975L129.994 9.3579L133.994 9.37463ZM132.001 7.5481L147.172 7.61157L147.188 3.61161L132.018 3.54813L132.001 7.5481ZM145.18 5.60322L145.164 9.42137L149.164 9.43811L149.18 5.61996L145.18 5.60322ZM147.172 7.42976L141.923 7.40779L141.906 11.4078L147.156 11.4297L147.172 7.42976ZM139.914 9.3994L139.857 23.0356L143.857 23.0524L143.914 9.41614L139.914 9.3994ZM141.865 21.044L137.195 21.0245L137.178 25.0245L141.849 25.044L141.865 21.044ZM139.187 23.0328L139.244 9.3966L135.244 9.37986L135.187 23.0161L139.187 23.0328ZM137.252 7.38825L132.002 7.36628L131.985 11.3662L137.235 11.3882L137.252 7.38825Z" fill="white" mask="url(#path-11-outside-6_328_28)"/>
<mask id="path-13-outside-7_328_28" maskUnits="userSpaceOnUse" x="151.732" y="3.25314" width="24.2381" height="25.1305" fill="black">
<rect fill="white" x="151.732" y="3.25314" width="24.2381" height="25.1305"/>
<path d="M171.866 16.4145C171.667 18.3474 171.124 19.9394 170.235 21.1903C169.348 22.4355 168.23 23.3344 166.882 23.8869C165.535 24.4337 164.076 24.6263 162.505 24.4647C160.922 24.3019 159.527 23.8128 158.32 22.9975C157.119 22.1772 156.211 21.067 155.596 19.6671C154.986 18.2622 154.78 16.5988 154.978 14.6772C155.177 12.7442 155.717 11.1548 156.599 9.90897C157.488 8.65808 158.603 7.75892 159.944 7.2115C161.292 6.65902 162.757 6.46417 164.34 6.62697C165.911 6.78861 167.3 7.27707 168.507 8.09237C169.714 8.90201 170.626 10.0096 171.241 11.4151C171.857 12.815 172.065 14.4815 171.866 16.4145ZM167.017 15.9156C167.124 14.8756 167.075 13.9853 166.872 13.2447C166.674 12.499 166.326 11.9148 165.827 11.4922C165.334 11.0645 164.697 10.8106 163.917 10.7303C163.137 10.6501 162.46 10.7689 161.884 11.0867C161.315 11.3994 160.855 11.9004 160.505 12.5897C160.16 13.274 159.934 14.1361 159.827 15.176C159.72 16.216 159.766 17.1088 159.963 17.8545C160.167 18.5952 160.515 19.1793 161.008 19.607C161.507 20.0296 162.147 20.2811 162.927 20.3613C163.707 20.4415 164.381 20.3253 164.95 20.0126C165.526 19.6948 165.985 19.1938 166.33 18.5095C166.681 17.8202 166.91 16.9556 167.017 15.9156Z"/>
</mask>
<path d="M171.866 16.4145C171.667 18.3474 171.124 19.9394 170.235 21.1903C169.348 22.4355 168.23 23.3344 166.882 23.8869C165.535 24.4337 164.076 24.6263 162.505 24.4647C160.922 24.3019 159.527 23.8128 158.32 22.9975C157.119 22.1772 156.211 21.067 155.596 19.6671C154.986 18.2622 154.78 16.5988 154.978 14.6772C155.177 12.7442 155.717 11.1548 156.599 9.90897C157.488 8.65808 158.603 7.75892 159.944 7.2115C161.292 6.65902 162.757 6.46417 164.34 6.62697C165.911 6.78861 167.3 7.27707 168.507 8.09237C169.714 8.90201 170.626 10.0096 171.241 11.4151C171.857 12.815 172.065 14.4815 171.866 16.4145ZM167.017 15.9156C167.124 14.8756 167.075 13.9853 166.872 13.2447C166.674 12.499 166.326 11.9148 165.827 11.4922C165.334 11.0645 164.697 10.8106 163.917 10.7303C163.137 10.6501 162.46 10.7689 161.884 11.0867C161.315 11.3994 160.855 11.9004 160.505 12.5897C160.16 13.274 159.934 14.1361 159.827 15.176C159.72 16.216 159.766 17.1088 159.963 17.8545C160.167 18.5952 160.515 19.1793 161.008 19.607C161.507 20.0296 162.147 20.2811 162.927 20.3613C163.707 20.4415 164.381 20.3253 164.95 20.0126C165.526 19.6948 165.985 19.1938 166.33 18.5095C166.681 17.8202 166.91 16.9556 167.017 15.9156Z" fill="#003746"/>
<path d="M170.235 21.1903L171.864 22.3513L171.866 22.3483L170.235 21.1903ZM166.882 23.8869L167.634 25.74L167.641 25.7374L166.882 23.8869ZM158.32 22.9975L157.192 24.6489L157.201 24.6549L158.32 22.9975ZM155.596 19.6671L153.761 20.463L153.765 20.4723L155.596 19.6671ZM156.599 9.90896L154.969 8.75093L154.967 8.75322L156.599 9.90896ZM159.944 7.2115L160.7 9.06326L160.703 9.06204L159.944 7.2115ZM168.507 8.09237L167.387 9.74971L167.393 9.75355L168.507 8.09237ZM171.241 11.4151L169.409 12.217L169.41 12.2203L171.241 11.4151ZM166.872 13.2447L164.938 13.7566L164.941 13.7658L164.943 13.775L166.872 13.2447ZM165.827 11.4922L164.516 13.0028L164.525 13.0108L164.534 13.0186L165.827 11.4922ZM161.884 11.0867L162.848 12.8394L162.851 12.8373L161.884 11.0867ZM160.505 12.5897L158.722 11.6826L158.718 11.6902L160.505 12.5897ZM159.963 17.8545L158.03 18.3665L158.032 18.3757L158.035 18.3849L159.963 17.8545ZM161.008 19.607L159.697 21.1177L159.706 21.1256L159.716 21.1334L161.008 19.607ZM164.95 20.0126L165.913 21.7654L165.917 21.7632L164.95 20.0126ZM166.33 18.5095L164.548 17.6024L164.544 17.61L166.33 18.5095ZM169.877 16.2098C169.704 17.8893 169.247 19.1283 168.605 20.0322L171.866 22.3483C173.001 20.7504 173.631 18.8056 173.856 16.6191L169.877 16.2098ZM168.607 20.0293C167.927 20.9833 167.104 21.6343 166.123 22.0363L167.641 25.7374C169.355 25.0344 170.768 23.8877 171.864 22.3513L168.607 20.0293ZM166.13 22.0337C165.111 22.4471 163.984 22.6063 162.709 22.4752L162.3 26.4542C164.168 26.6463 165.958 26.4203 167.634 25.74L166.13 22.0337ZM162.709 22.4752C161.423 22.3429 160.349 21.9545 159.44 21.3402L157.201 24.6549C158.705 25.6711 160.421 26.2608 162.3 26.4542L162.709 22.4752ZM159.448 21.3461C158.573 20.7478 157.9 19.9382 157.426 18.862L153.765 20.4723C154.523 22.1959 155.666 23.6066 157.192 24.6489L159.448 21.3461ZM157.43 18.8712C156.989 17.853 156.796 16.5499 156.967 14.8818L152.988 14.4725C152.765 16.6478 152.984 18.6713 153.761 20.463L157.43 18.8712ZM156.967 14.8818C157.14 13.1997 157.596 11.9629 158.232 11.0647L154.967 8.75322C153.839 10.3467 153.213 12.2887 152.988 14.4725L156.967 14.8818ZM158.23 11.067C158.912 10.1066 159.731 9.45859 160.7 9.06326L159.188 5.35975C157.474 6.05925 156.063 7.20953 154.969 8.75093L158.23 11.067ZM160.703 9.06204C161.718 8.64577 162.849 8.4842 164.135 8.61647L164.544 4.63747C162.665 4.44415 160.865 4.67227 159.185 5.36097L160.703 9.06204ZM164.135 8.61647C165.407 8.74732 166.476 9.13409 167.387 9.7497L169.626 6.43503C168.124 5.42006 166.415 4.82989 164.544 4.63747L164.135 8.61647ZM167.393 9.75355C168.266 10.339 168.937 11.1402 169.409 12.217L173.073 10.6133C172.314 8.87898 171.163 7.46497 169.621 6.43118L167.393 9.75355ZM169.41 12.2203C169.853 13.2283 170.049 14.5299 169.877 16.2098L173.856 16.6191C174.08 14.433 173.86 12.4018 173.072 10.61L169.41 12.2203ZM169.006 16.1203C169.13 14.9169 169.089 13.7634 168.8 12.7143L164.943 13.775C165.062 14.2073 165.117 14.8343 165.027 15.7109L169.006 16.1203ZM168.805 12.7328C168.522 11.6641 167.984 10.6978 167.119 9.96582L164.534 13.0186C164.668 13.1318 164.826 13.3339 164.938 13.7566L168.805 12.7328ZM167.137 9.98157C166.276 9.23376 165.227 8.85449 164.122 8.74082L163.713 12.7198C164.168 12.7666 164.392 12.8953 164.516 13.0028L167.137 9.98157ZM164.122 8.74082C163.016 8.62706 161.914 8.78535 160.917 9.33599L162.851 12.8373C163.005 12.7524 163.259 12.6731 163.713 12.7198L164.122 8.74082ZM160.921 9.33387C159.938 9.87442 159.22 10.7053 158.722 11.6826L162.287 13.4968C162.491 13.0955 162.693 12.9243 162.848 12.8394L160.921 9.33387ZM158.718 11.6902C158.232 12.6552 157.961 13.7718 157.838 14.9714L161.817 15.3807C161.907 14.5004 162.088 13.8927 162.291 13.4892L158.718 11.6902ZM157.838 14.9714C157.714 16.1718 157.753 17.3205 158.03 18.3665L161.896 17.3426C161.778 16.8971 161.726 16.2602 161.817 15.3807L157.838 14.9714ZM158.035 18.3849C158.324 19.4373 158.857 20.3882 159.697 21.1177L162.319 18.0964C162.174 17.9705 162.009 17.7531 161.891 17.3242L158.035 18.3849ZM159.716 21.1334C160.579 21.8646 161.622 22.2377 162.722 22.3508L163.131 18.3718C162.671 18.3245 162.435 18.1947 162.3 18.0807L159.716 21.1334ZM162.722 22.3508C163.821 22.4639 164.92 22.3114 165.913 21.7654L163.987 18.2598C163.843 18.3392 163.592 18.4192 163.131 18.3718L162.722 22.3508ZM165.917 21.7632C166.901 21.22 167.621 20.3918 168.116 19.409L164.544 17.61C164.35 17.9957 164.15 18.1695 163.983 18.2619L165.917 21.7632ZM168.112 19.4166C168.607 18.4456 168.882 17.3244 169.006 16.1203L165.027 15.7109C164.937 16.5867 164.755 17.1948 164.548 17.6024L168.112 19.4166Z" fill="white" mask="url(#path-13-outside-7_328_28)"/>
<mask id="path-15-outside-8_328_28" maskUnits="userSpaceOnUse" x="176.237" y="6.30157" width="22.9696" height="25.3183" fill="black">
<rect fill="white" x="176.237" y="6.30157" width="22.9696" height="25.3183"/>
<path d="M178.715 26.3274L182.162 9.21647L189.547 10.704C190.817 10.9598 191.878 11.4342 192.73 12.1273C193.581 12.8205 194.18 13.6743 194.526 14.6888C194.873 15.7032 194.923 16.8176 194.679 18.0319C194.432 19.2572 193.945 20.2634 193.219 21.0502C192.498 21.8381 191.599 22.3757 190.521 22.6628C189.448 22.9511 188.261 22.964 186.957 22.7015L182.546 21.813L183.273 18.2037L186.748 18.9037C187.294 19.0136 187.778 19.0126 188.201 18.9006C188.63 18.7842 188.984 18.5685 189.261 18.2535C189.545 17.9397 189.735 17.5405 189.833 17.0559C189.932 16.5657 189.91 16.1267 189.768 15.7387C189.633 15.3463 189.388 15.0189 189.036 14.7566C188.689 14.4898 188.243 14.3014 187.697 14.1915L186.06 13.8617L183.361 27.263L178.715 26.3274Z"/>
</mask>
<path d="M178.715 26.3274L182.162 9.21647L189.547 10.704C190.817 10.9598 191.878 11.4342 192.73 12.1273C193.581 12.8205 194.18 13.6743 194.526 14.6888C194.873 15.7032 194.923 16.8176 194.679 18.0319C194.432 19.2572 193.945 20.2634 193.219 21.0502C192.498 21.8381 191.599 22.3757 190.521 22.6628C189.448 22.9511 188.261 22.964 186.957 22.7015L182.546 21.813L183.273 18.2037L186.748 18.9037C187.294 19.0136 187.778 19.0126 188.201 18.9006C188.63 18.7842 188.984 18.5685 189.261 18.2535C189.545 17.9397 189.735 17.5405 189.833 17.0559C189.932 16.5657 189.91 16.1267 189.768 15.7387C189.633 15.3463 189.388 15.0189 189.036 14.7566C188.689 14.4898 188.243 14.3014 187.697 14.1915L186.06 13.8617L183.361 27.263L178.715 26.3274Z" fill="#003746"/>
<path d="M178.715 26.3274L176.755 25.9326L176.36 27.8932L178.321 28.2881L178.715 26.3274ZM182.162 9.21647L182.557 7.25584L180.596 6.86096L180.201 8.82159L182.162 9.21647ZM192.73 12.1273L191.467 13.6784L191.467 13.6784L192.73 12.1273ZM194.526 14.6888L196.419 14.0427L196.419 14.0427L194.526 14.6888ZM193.219 21.0502L191.75 19.6934L191.743 19.7001L193.219 21.0502ZM190.521 22.6628L190.006 20.7302L190.002 20.7314L190.521 22.6628ZM182.546 21.813L180.585 21.4181L180.19 23.3788L182.151 23.7736L182.546 21.813ZM183.273 18.2037L183.668 16.243L181.707 15.8482L181.312 17.8088L183.273 18.2037ZM188.201 18.9006L188.713 20.8339L188.725 20.8309L188.201 18.9006ZM189.261 18.2535L187.777 16.913L187.769 16.9216L187.762 16.9304L189.261 18.2535ZM189.768 15.7387L187.877 16.3911L187.884 16.4089L187.89 16.4266L189.768 15.7387ZM189.036 14.7566L187.815 16.3407L187.828 16.3513L187.842 16.3616L189.036 14.7566ZM186.06 13.8617L186.455 11.901L184.494 11.5062L184.099 13.4668L186.06 13.8617ZM183.361 27.263L182.966 29.2237L184.927 29.6185L185.321 27.6579L183.361 27.263ZM180.676 26.7223L184.122 9.61135L180.201 8.82159L176.755 25.9326L180.676 26.7223ZM181.767 11.1771L189.153 12.6646L189.942 8.74336L182.557 7.25584L181.767 11.1771ZM189.153 12.6646C190.161 12.8678 190.909 13.2241 191.467 13.6784L193.992 10.5763C192.847 9.64434 191.473 9.05171 189.942 8.74336L189.153 12.6646ZM191.467 13.6784C192.035 14.141 192.411 14.6841 192.634 15.3348L196.419 14.0427C195.949 12.6645 195.127 11.5 193.992 10.5763L191.467 13.6784ZM192.634 15.3348C192.849 15.9654 192.904 16.7149 192.718 17.637L196.64 18.4267C196.943 16.9203 196.896 15.4411 196.419 14.0427L192.634 15.3348ZM192.718 17.637C192.532 18.5638 192.188 19.2185 191.75 19.6935L194.688 22.4069C195.703 21.3083 196.333 19.9507 196.64 18.4267L192.718 17.637ZM191.743 19.7001C191.292 20.1932 190.732 20.5369 190.006 20.7302L191.036 24.5954C192.466 24.2145 193.704 23.4831 194.695 22.4002L191.743 19.7001ZM190.002 20.7314C189.281 20.9251 188.412 20.9543 187.352 20.7409L186.562 24.6621C188.109 24.9737 189.616 24.9771 191.04 24.5943L190.002 20.7314ZM187.352 20.7409L182.941 19.8524L182.151 23.7736L186.562 24.6621L187.352 20.7409ZM184.506 22.2079L185.233 18.5985L181.312 17.8088L180.585 21.4181L184.506 22.2079ZM182.878 20.1643L186.354 20.8643L187.143 16.943L183.668 16.243L182.878 20.1643ZM186.354 20.8643C187.12 21.0187 187.925 21.0429 188.713 20.8339L187.688 16.9674C187.632 16.9823 187.468 17.0085 187.143 16.943L186.354 20.8643ZM188.725 20.8309C189.508 20.6183 190.209 20.2028 190.761 19.5767L187.762 16.9304C187.753 16.9398 187.749 16.9423 187.746 16.9442C187.742 16.9467 187.723 16.958 187.677 16.9704L188.725 20.8309ZM190.746 19.594C191.308 18.9714 191.637 18.2274 191.794 17.4508L187.872 16.661C187.834 16.8535 187.782 16.908 187.777 16.913L190.746 19.594ZM191.794 17.4508C191.95 16.6752 191.939 15.8516 191.646 15.0508L187.89 16.4266C187.887 16.4196 187.892 16.4265 187.893 16.4577C187.895 16.4909 187.893 16.5565 187.872 16.661L191.794 17.4508ZM191.659 15.0863C191.384 14.2903 190.884 13.639 190.229 13.1515L187.842 16.3616C187.859 16.3742 187.869 16.3833 187.874 16.3884C187.879 16.3934 187.881 16.3954 187.88 16.3945C187.879 16.3935 187.878 16.3916 187.877 16.3895C187.876 16.3874 187.876 16.3875 187.877 16.3911L191.659 15.0863ZM190.256 13.1724C189.61 12.6744 188.859 12.3852 188.092 12.2308L187.303 16.1521C187.628 16.2176 187.769 16.3052 187.815 16.3407L190.256 13.1724ZM188.092 12.2308L186.455 11.901L185.665 15.8223L187.303 16.1521L188.092 12.2308ZM184.099 13.4668L181.4 26.8681L185.321 27.6579L188.021 14.2565L184.099 13.4668ZM183.756 25.3024L179.11 24.3668L178.321 28.2881L182.966 29.2237L183.756 25.3024Z" fill="white" mask="url(#path-15-outside-8_328_28)"/>
<mask id="path-17-outside-9_328_28" maskUnits="userSpaceOnUse" x="196.409" y="10.9515" width="22.4919" height="25.8874" fill="black">
<rect fill="white" x="196.409" y="10.9515" width="22.4919" height="25.8874"/>
<path d="M199.01 30.7439L203.909 13.9911L215.983 17.5221L214.911 21.1868L207.386 18.9859L206.544 21.8652L213.448 23.8843L212.376 27.549L205.472 25.5299L204.63 28.4093L212.123 30.6007L211.051 34.2653L199.01 30.7439Z"/>
</mask>
<path d="M199.01 30.7439L203.909 13.9911L215.983 17.5221L214.911 21.1868L207.386 18.9859L206.544 21.8652L213.448 23.8843L212.376 27.549L205.472 25.5299L204.63 28.4093L212.123 30.6007L211.051 34.2653L199.01 30.7439Z" fill="#003746"/>
<path d="M199.01 30.7439L197.09 30.1825L196.529 32.1021L198.449 32.6635L199.01 30.7439ZM203.909 13.9911L204.471 12.0715L202.551 11.5101L201.99 13.4297L203.909 13.9911ZM215.983 17.5221L217.903 18.0835L218.464 16.1639L216.545 15.6025L215.983 17.5221ZM214.911 21.1868L214.35 23.1064L216.27 23.6677L216.831 21.7482L214.911 21.1868ZM207.386 18.9859L207.947 17.0663L206.028 16.5049L205.466 18.4245L207.386 18.9859ZM206.544 21.8652L204.624 21.3039L204.063 23.2234L205.982 23.7848L206.544 21.8652ZM213.448 23.8843L215.367 24.4457L215.929 22.5261L214.009 21.9647L213.448 23.8843ZM212.376 27.549L211.815 29.4686L213.734 30.03L214.296 28.1104L212.376 27.549ZM205.472 25.5299L206.033 23.6103L204.114 23.0489L203.552 24.9685L205.472 25.5299ZM204.63 28.4093L202.71 27.8479L202.149 29.7675L204.068 30.3289L204.63 28.4093ZM212.123 30.6007L214.042 31.162L214.604 29.2425L212.684 28.6811L212.123 30.6007ZM211.051 34.2653L210.49 36.1849L212.409 36.7463L212.971 34.8267L211.051 34.2653ZM200.93 31.3053L205.829 14.5525L201.99 13.4297L197.09 30.1825L200.93 31.3053ZM203.348 15.9107L215.422 19.4417L216.545 15.6025L204.471 12.0715L203.348 15.9107ZM214.064 16.9607L212.992 20.6254L216.831 21.7482L217.903 18.0835L214.064 16.9607ZM215.473 19.2672L207.947 17.0663L206.824 20.9054L214.35 23.1064L215.473 19.2672ZM205.466 18.4245L204.624 21.3039L208.463 22.4266L209.305 19.5472L205.466 18.4245ZM205.982 23.7848L212.886 25.8039L214.009 21.9647L207.105 19.9457L205.982 23.7848ZM211.528 23.3229L210.456 26.9876L214.296 28.1104L215.367 24.4457L211.528 23.3229ZM212.937 25.6294L206.033 23.6103L204.911 27.4495L211.815 29.4686L212.937 25.6294ZM203.552 24.9685L202.71 27.8479L206.549 28.9707L207.392 26.0913L203.552 24.9685ZM204.068 30.3289L211.561 32.5202L212.684 28.6811L205.191 26.4897L204.068 30.3289ZM210.203 30.0393L209.131 33.7039L212.971 34.8267L214.042 31.162L210.203 30.0393ZM211.612 32.3457L199.571 28.8243L198.449 32.6635L210.49 36.1849L211.612 32.3457Z" fill="white" mask="url(#path-17-outside-9_328_28)"/>
<mask id="path-19-outside-10_328_28" maskUnits="userSpaceOnUse" x="215.239" y="17.1518" width="16.0238" height="23.7536" fill="black">
<rect fill="white" x="215.239" y="17.1518" width="16.0238" height="23.7536"/>
<path d="M228.38 21.9046L222.371 38.2922L217.922 36.6608L223.931 20.2732L228.38 21.9046Z"/>
</mask>
<path d="M228.38 21.9046L222.371 38.2922L217.922 36.6608L223.931 20.2732L228.38 21.9046Z" fill="#003746"/>
<path d="M228.38 21.9046L230.258 22.5932L230.947 20.7154L229.069 20.0269L228.38 21.9046ZM222.371 38.2922L221.683 40.1699L223.56 40.8585L224.249 38.9807L222.371 38.2922ZM217.922 36.6608L216.045 35.9722L215.356 37.85L217.234 38.5385L217.922 36.6608ZM223.931 20.2732L224.62 18.3955L222.742 17.707L222.054 19.5847L223.931 20.2732ZM226.503 21.2161L220.493 37.6036L224.249 38.9807L230.258 22.5932L226.503 21.2161ZM223.06 36.4144L218.611 34.783L217.234 38.5385L221.683 40.1699L223.06 36.4144ZM219.8 37.3493L225.809 20.9618L222.054 19.5847L216.045 35.9722L219.8 37.3493ZM223.243 22.151L227.692 23.7824L229.069 20.0269L224.62 18.3955L223.243 22.151Z" fill="white" mask="url(#path-19-outside-10_328_28)"/>
<mask id="path-21-outside-11_328_28" maskUnits="userSpaceOnUse" x="224.41" y="20.8389" width="31.8845" height="30.4037" fill="black">
<rect fill="white" x="224.41" y="20.8389" width="31.8845" height="30.4037"/>
<path d="M233.116 42.6284L228.466 40.5019L240.964 27.024L246.854 29.7175L244.836 47.9871L240.185 45.8606L241.972 32.7706L241.848 32.7139L233.116 42.6284ZM235.112 35.9688L243.855 39.9665L242.381 43.1909L233.638 39.1931L235.112 35.9688Z"/>
</mask>
<path d="M233.116 42.6284L228.466 40.5019L240.964 27.024L246.854 29.7175L244.836 47.9871L240.185 45.8606L241.972 32.7706L241.848 32.7139L233.116 42.6284ZM235.112 35.9688L243.855 39.9665L242.381 43.1909L233.638 39.1931L235.112 35.9688Z" fill="#003746"/>
<path d="M233.116 42.6284L232.285 44.4473L233.636 45.065L234.617 43.9503L233.116 42.6284ZM228.466 40.5019L226.999 39.142L225.118 41.1705L227.634 42.3208L228.466 40.5019ZM240.964 27.024L241.795 25.2051L240.48 24.6038L239.497 25.6641L240.964 27.024ZM246.854 29.7175L248.842 29.9372L249.001 28.4999L247.686 27.8986L246.854 29.7175ZM244.836 47.9871L244.004 49.806L246.52 50.9563L246.824 48.2068L244.836 47.9871ZM240.185 45.8606L238.204 45.5901L238.003 47.0618L239.353 47.6795L240.185 45.8606ZM241.972 32.7706L243.954 33.0411L244.155 31.5694L242.804 30.9517L241.972 32.7706ZM241.848 32.7139L242.68 30.895L241.329 30.2773L240.347 31.392L241.848 32.7139ZM235.112 35.9688L235.944 34.1499L234.125 33.3182L233.293 35.1371L235.112 35.9688ZM243.855 39.9665L245.674 40.7982L246.505 38.9793L244.687 38.1477L243.855 39.9665ZM242.381 43.1909L241.549 45.0098L243.368 45.8414L244.199 44.0226L242.381 43.1909ZM233.638 39.1931L231.819 38.3614L230.987 40.1803L232.806 41.012L233.638 39.1931ZM233.948 40.8095L229.298 38.6831L227.634 42.3208L232.285 44.4473L233.948 40.8095ZM229.932 41.8618L242.43 28.3839L239.497 25.6641L226.999 39.142L229.932 41.8618ZM240.132 28.8428L246.023 31.5364L247.686 27.8986L241.795 25.2051L240.132 28.8428ZM244.867 29.4978L242.848 47.7675L246.824 48.2068L248.842 29.9372L244.867 29.4978ZM245.667 46.1682L241.017 44.0418L239.353 47.6795L244.004 49.806L245.667 46.1682ZM242.167 46.1312L243.954 33.0411L239.991 32.5L238.204 45.5901L242.167 46.1312ZM242.804 30.9517L242.68 30.895L241.017 34.5327L241.141 34.5895L242.804 30.9517ZM240.347 31.392L231.615 41.3065L234.617 43.9503L243.349 34.0357L240.347 31.392ZM234.28 37.7876L243.023 41.7854L244.687 38.1477L235.944 34.1499L234.28 37.7876ZM242.036 39.1348L240.562 42.3592L244.199 44.0226L245.674 40.7982L242.036 39.1348ZM243.212 41.372L234.469 37.3742L232.806 41.012L241.549 45.0098L243.212 41.372ZM235.456 40.0248L236.931 36.8004L233.293 35.1371L231.819 38.3614L235.456 40.0248Z" fill="white" mask="url(#path-21-outside-11_328_28)"/>
<mask id="path-23-outside-12_328_28" maskUnits="userSpaceOnUse" x="247.102" y="32.5512" width="28.8354" height="29.9273" fill="black">
<rect fill="white" x="247.102" y="32.5512" width="28.8354" height="29.9273"/>
<path d="M265.467 45.7567C265.712 45.2423 265.75 44.752 265.58 44.2859C265.415 43.8226 265.001 43.3987 264.337 43.0141C263.914 42.7692 263.538 42.62 263.207 42.5666C262.885 42.5111 262.61 42.5324 262.383 42.6304C262.155 42.7284 261.975 42.8866 261.842 43.105C261.726 43.2812 261.663 43.4644 261.651 43.6546C261.647 43.8428 261.695 44.0443 261.794 44.2591C261.895 44.469 262.049 44.6962 262.256 44.9405C262.462 45.1849 262.723 45.4479 263.04 45.7296L264.125 46.7128C264.858 47.374 265.438 48.022 265.865 48.6567C266.292 49.2914 266.58 49.9151 266.731 50.5277C266.885 51.1354 266.909 51.7339 266.804 52.3232C266.704 52.9153 266.49 53.5003 266.161 54.0784C265.581 55.0686 264.846 55.7655 263.955 56.1689C263.065 56.5724 262.058 56.6887 260.936 56.5178C259.819 56.3497 258.621 55.8954 257.343 55.1549C256.03 54.3944 254.997 53.5365 254.244 52.5813C253.495 51.629 253.084 50.593 253.01 49.4734C252.945 48.3517 253.275 47.1577 254.002 45.8914L257.896 48.1473C257.653 48.6236 257.543 49.079 257.568 49.5132C257.592 49.9475 257.744 50.354 258.023 50.7327C258.308 51.1143 258.711 51.456 259.232 51.7579C259.669 52.0114 260.067 52.1695 260.425 52.2323C260.782 52.295 261.093 52.2747 261.356 52.1712C261.62 52.0678 261.825 51.8946 261.973 51.6516C262.101 51.4177 262.142 51.172 262.094 50.9145C262.054 50.6549 261.909 50.3608 261.66 50.0324C261.413 49.6989 261.045 49.3084 260.556 48.8608L259.239 47.6648C258.07 46.5999 257.296 45.5047 256.917 44.3791C256.546 43.2514 256.705 42.099 257.394 40.9219C257.944 39.9604 258.685 39.2703 259.617 38.8516C260.557 38.4308 261.604 38.2852 262.757 38.4147C263.914 38.547 265.091 38.9592 266.285 39.6514C267.505 40.3578 268.441 41.1728 269.094 42.0964C269.748 43.02 270.1 43.9925 270.152 45.014C270.211 46.0334 269.957 47.0387 269.39 48.0297L265.467 45.7567Z"/>
</mask>
<path d="M265.467 45.7567C265.712 45.2423 265.75 44.752 265.58 44.2859C265.415 43.8226 265.001 43.3987 264.337 43.0141C263.914 42.7692 263.538 42.62 263.207 42.5666C262.885 42.5111 262.61 42.5324 262.383 42.6304C262.155 42.7284 261.975 42.8866 261.842 43.105C261.726 43.2812 261.663 43.4644 261.651 43.6546C261.647 43.8428 261.695 44.0443 261.794 44.2591C261.895 44.469 262.049 44.6962 262.256 44.9405C262.462 45.1849 262.723 45.4479 263.04 45.7296L264.125 46.7128C264.858 47.374 265.438 48.022 265.865 48.6567C266.292 49.2914 266.58 49.9151 266.731 50.5277C266.885 51.1354 266.909 51.7339 266.804 52.3232C266.704 52.9153 266.49 53.5003 266.161 54.0784C265.581 55.0686 264.846 55.7655 263.955 56.1689C263.065 56.5724 262.058 56.6887 260.936 56.5178C259.819 56.3497 258.621 55.8954 257.343 55.1549C256.03 54.3944 254.997 53.5365 254.244 52.5813C253.495 51.629 253.084 50.593 253.01 49.4734C252.945 48.3517 253.275 47.1577 254.002 45.8914L257.896 48.1473C257.653 48.6236 257.543 49.079 257.568 49.5132C257.592 49.9475 257.744 50.354 258.023 50.7327C258.308 51.1143 258.711 51.456 259.232 51.7579C259.669 52.0114 260.067 52.1695 260.425 52.2323C260.782 52.295 261.093 52.2747 261.356 52.1712C261.62 52.0678 261.825 51.8946 261.973 51.6516C262.101 51.4177 262.142 51.172 262.094 50.9145C262.054 50.6549 261.909 50.3608 261.66 50.0324C261.413 49.6989 261.045 49.3084 260.556 48.8608L259.239 47.6648C258.07 46.5999 257.296 45.5047 256.917 44.3791C256.546 43.2514 256.705 42.099 257.394 40.9219C257.944 39.9604 258.685 39.2703 259.617 38.8516C260.557 38.4308 261.604 38.2852 262.757 38.4147C263.914 38.547 265.091 38.9592 266.285 39.6514C267.505 40.3578 268.441 41.1728 269.094 42.0964C269.748 43.02 270.1 43.9925 270.152 45.014C270.211 46.0334 269.957 47.0387 269.39 48.0297L265.467 45.7567Z" fill="#003746"/>
<path d="M265.467 45.7567L263.662 44.8953L262.866 46.5617L264.464 47.4873L265.467 45.7567ZM265.58 44.2859L263.696 44.9568L263.698 44.9637L263.701 44.9707L265.58 44.2859ZM263.207 42.5666L262.868 44.5376L262.878 44.5393L262.888 44.5409L263.207 42.5666ZM262.383 42.6304L261.591 40.7936L261.591 40.7936L262.383 42.6304ZM261.842 43.105L263.516 44.1995L263.533 44.1729L263.549 44.1458L261.842 43.105ZM261.651 43.6546L259.655 43.5318L259.653 43.5722L259.652 43.6127L261.651 43.6546ZM261.794 44.2591L259.976 45.0947L259.985 45.1128L259.993 45.1307L261.794 44.2591ZM263.04 45.7296L264.383 44.2475L264.376 44.2419L264.37 44.2363L263.04 45.7296ZM264.125 46.7128L262.782 48.1949L262.785 48.1981L264.125 46.7128ZM266.731 50.5277L264.789 51.0054L264.792 51.0176L266.731 50.5277ZM266.804 52.3232L264.835 51.9723L264.833 51.9811L264.832 51.9898L266.804 52.3232ZM266.161 54.0784L267.887 55.0896L267.894 55.0779L267.9 55.0662L266.161 54.0784ZM263.955 56.1689L264.781 57.9907L263.955 56.1689ZM260.936 56.5178L261.237 54.5406L261.234 54.54L260.936 56.5178ZM254.244 52.5813L252.671 53.8171L252.673 53.8198L254.244 52.5813ZM253.01 49.4734L251.014 49.5907L251.015 49.6047L253.01 49.4734ZM254.002 45.8914L255.005 44.1608L253.268 43.1543L252.268 44.8955L254.002 45.8914ZM257.896 48.1473L259.677 49.0565L260.54 47.3674L258.899 46.4167L257.896 48.1473ZM257.568 49.5132L255.571 49.6245L255.571 49.6245L257.568 49.5132ZM258.023 50.7327L256.414 51.9208L256.42 51.9284L258.023 50.7327ZM260.425 52.2323L260.079 54.2022L260.079 54.2022L260.425 52.2323ZM261.356 52.1712L262.087 54.0329L262.087 54.0329L261.356 52.1712ZM261.973 51.6516L263.683 52.6886L263.704 52.6533L263.724 52.6172L261.973 51.6516ZM262.094 50.9145L260.118 51.2193L260.122 51.2495L260.128 51.2795L262.094 50.9145ZM261.66 50.0324L260.052 51.2223L260.06 51.2324L260.067 51.2425L261.66 50.0324ZM260.556 48.8608L261.906 47.3852L261.901 47.3806L260.556 48.8608ZM259.239 47.6648L257.893 49.1434L257.894 49.145L259.239 47.6648ZM256.917 44.3791L255.017 45.0042L255.022 45.017L256.917 44.3791ZM257.394 40.9219L259.12 41.9317L259.125 41.9237L259.129 41.9157L257.394 40.9219ZM259.617 38.8516L258.8 37.0262L258.798 37.0272L259.617 38.8516ZM262.757 38.4147L262.984 36.4276L262.98 36.4272L262.757 38.4147ZM269.094 42.0964L267.462 43.2515L269.094 42.0964ZM270.152 45.014L268.155 45.1151L268.155 45.1228L268.155 45.1305L270.152 45.014ZM269.39 48.0297L268.387 49.7602L270.126 50.7678L271.125 49.0237L269.39 48.0297ZM267.272 46.6181C267.711 45.6976 267.841 44.6479 267.459 43.601L263.701 44.9707C263.696 44.9579 263.691 44.9382 263.687 44.9136C263.684 44.889 263.684 44.8667 263.685 44.8494C263.688 44.8133 263.695 44.8255 263.662 44.8953L267.272 46.6181ZM267.464 43.615C267.072 42.5144 266.195 41.7794 265.34 41.2836L263.334 44.7447C263.553 44.8711 263.666 44.9678 263.715 45.0184C263.761 45.0654 263.728 45.0475 263.696 44.9568L267.464 43.615ZM265.34 41.2836C264.794 40.9677 264.182 40.6981 263.527 40.5922L262.888 44.5409C262.884 44.5403 262.92 44.5459 263.001 44.5779C263.081 44.6097 263.192 44.6619 263.334 44.7447L265.34 41.2836ZM263.547 40.5956C262.962 40.495 262.272 40.5003 261.591 40.7936L263.174 44.4672C262.948 44.5645 262.808 44.5272 262.868 44.5376L263.547 40.5956ZM261.591 40.7936C260.97 41.0611 260.475 41.5041 260.134 42.0642L263.549 44.1458C263.518 44.1981 263.468 44.2628 263.396 44.3259C263.323 44.3894 263.246 44.4361 263.174 44.4672L261.591 40.7936ZM260.168 42.0104C259.883 42.4459 259.69 42.9598 259.655 43.5318L263.647 43.7775C263.636 43.969 263.57 44.1165 263.516 44.1995L260.168 42.0104ZM259.652 43.6127C259.64 44.1708 259.783 44.6736 259.976 45.0947L263.611 43.4235C263.607 43.4149 263.655 43.5147 263.651 43.6965L259.652 43.6127ZM259.993 45.1307C260.189 45.5351 260.45 45.9028 260.728 46.2312L263.783 43.6498C263.648 43.4895 263.601 43.4029 263.594 43.3875L259.993 45.1307ZM260.728 46.2312C261.011 46.5665 261.344 46.8972 261.709 47.2229L264.37 44.2363C264.103 43.9986 263.913 43.8033 263.783 43.6498L260.728 46.2312ZM261.697 47.2116L262.782 48.1949L265.468 45.2308L264.383 44.2475L261.697 47.2116ZM262.785 48.1981C263.43 48.7797 263.892 49.3064 264.205 49.7728L267.524 47.5406C266.984 46.7376 266.286 45.9684 265.464 45.2276L262.785 48.1981ZM264.205 49.7728C264.528 50.253 264.705 50.6631 264.789 51.0054L268.673 50.05C268.456 49.1671 268.055 48.3299 267.524 47.5406L264.205 49.7728ZM264.792 51.0176C264.879 51.3636 264.888 51.6754 264.835 51.9723L268.773 52.674C268.93 51.7924 268.89 50.9072 268.67 50.0378L264.792 51.0176ZM264.832 51.9898C264.775 52.3285 264.648 52.6938 264.422 53.0906L267.9 55.0662C268.332 54.3069 268.633 53.502 268.776 52.6565L264.832 51.9898ZM264.436 53.0672C264.027 53.7646 263.581 54.1426 263.13 54.3472L264.781 57.9907C266.11 57.3884 267.135 56.3727 267.887 55.0896L264.436 53.0672ZM263.13 54.3472C262.646 54.5665 262.04 54.6628 261.237 54.5406L260.635 58.495C262.077 58.7145 263.484 58.5783 264.781 57.9907L263.13 54.3472ZM261.234 54.54C260.428 54.4189 259.469 54.0757 258.345 53.4243L256.34 56.8854C257.772 57.7152 259.209 58.2806 260.639 58.4955L261.234 54.54ZM258.345 53.4243C257.199 52.7603 256.377 52.0573 255.814 51.3428L252.673 53.8198C253.616 55.0158 254.861 56.0284 256.34 56.8854L258.345 53.4243ZM255.816 51.3455C255.296 50.6838 255.051 50.0269 255.006 49.3421L251.015 49.6047C251.117 51.159 251.694 52.5741 252.671 53.8171L255.816 51.3455ZM255.007 49.3561C254.97 48.724 255.146 47.9158 255.737 46.8873L252.268 44.8955C251.404 46.3997 250.919 47.9795 251.014 49.5907L255.007 49.3561ZM253 47.6219L256.893 49.8778L258.899 46.4167L255.005 44.1608L253 47.6219ZM256.115 47.238C255.747 47.9575 255.523 48.7642 255.571 49.6245L259.564 49.402C259.564 49.3937 259.558 49.2897 259.677 49.0565L256.115 47.238ZM255.571 49.6245C255.618 50.48 255.923 51.2555 256.414 51.9207L259.632 49.5447C259.564 49.4525 259.565 49.415 259.564 49.402L255.571 49.6245ZM256.42 51.9284C256.903 52.5764 257.534 53.0855 258.229 53.4885L260.234 50.0274C259.888 49.8265 259.712 49.6521 259.627 49.537L256.42 51.9284ZM258.229 53.4885C258.796 53.8169 259.419 54.0864 260.079 54.2022L260.77 50.2624C260.715 50.2527 260.543 50.2059 260.234 50.0274L258.229 53.4885ZM260.079 54.2022C260.698 54.3108 261.397 54.3037 262.087 54.0329L260.625 50.3096C260.788 50.2457 260.867 50.2793 260.77 50.2624L260.079 54.2022ZM262.087 54.0329C262.76 53.7687 263.309 53.3048 263.683 52.6886L260.262 50.6146C260.295 50.5611 260.346 50.4961 260.419 50.4348C260.492 50.3734 260.565 50.3332 260.625 50.3096L262.087 54.0329ZM263.724 52.6172C264.072 51.9867 264.195 51.2718 264.061 50.5495L260.128 51.2795C260.112 51.192 260.107 51.0838 260.126 50.966C260.146 50.8488 260.184 50.7537 260.221 50.6861L263.724 52.6172ZM264.071 50.6096C263.959 49.8851 263.599 49.279 263.252 48.8222L260.067 51.2425C260.099 51.2847 260.122 51.3181 260.138 51.3428C260.154 51.3675 260.16 51.3809 260.161 51.383C260.163 51.3852 260.156 51.3729 260.148 51.3468C260.139 51.3205 260.127 51.2775 260.118 51.2193L264.071 50.6096ZM263.267 48.8425C262.913 48.3634 262.441 47.8747 261.906 47.3852L259.206 50.3364C259.649 50.7422 259.913 51.0345 260.052 51.2223L263.267 48.8425ZM261.901 47.3806L260.584 46.1845L257.894 49.145L259.211 50.3411L261.901 47.3806ZM260.586 46.1861C259.588 45.2771 259.053 44.4551 258.813 43.7412L255.022 45.017C255.539 46.5544 256.552 47.9228 257.893 49.1434L260.586 46.1861ZM258.817 43.754C258.653 43.2546 258.673 42.6953 259.12 41.9317L255.667 39.9121C254.737 41.5027 254.44 43.2482 255.018 45.0042L258.817 43.754ZM259.129 41.9157C259.488 41.2882 259.923 40.9067 260.437 40.6759L258.798 37.0272C257.447 37.6339 256.4 38.6326 255.658 39.9282L259.129 41.9157ZM260.435 40.677C261.009 40.42 261.689 40.3074 262.533 40.4022L262.98 36.4272C261.518 36.2629 260.106 36.4416 258.8 37.0262L260.435 40.677ZM262.529 40.4017C263.368 40.4976 264.283 40.8026 265.283 41.3819L267.288 37.9208C265.898 37.1159 264.461 36.5964 262.984 36.4276L262.529 40.4017ZM265.283 41.3819C266.312 41.9785 267.01 42.613 267.462 43.2515L270.727 40.9412C269.872 39.7325 268.697 38.737 267.288 37.9208L265.283 41.3819ZM267.462 43.2515C267.92 43.8994 268.124 44.512 268.155 45.1151L272.149 44.9129C272.077 43.473 271.575 42.1405 270.727 40.9412L267.462 43.2515ZM268.155 45.1305C268.19 45.7174 268.053 46.3404 267.654 47.0357L271.125 49.0237C271.862 47.737 272.233 46.3495 272.149 44.8975L268.155 45.1305ZM270.392 46.2991L266.469 44.0262L264.464 47.4873L268.387 49.7602L270.392 46.2991Z" fill="white" mask="url(#path-23-outside-12_328_28)"/>
</g>
<defs>
<filter id="filter0_d_328_28" x="0.44065" y="4.44811" width="277.11" height="63.3614" filterUnits="userSpaceOnUse" color-interpolation-filters="sRGB">
<feFlood flood-opacity="0" result="BackgroundImageFix"/>
<feColorMatrix in="SourceAlpha" type="matrix" values="0 0 0 0 0 0 0 0 0 0 0 0 0 0 0 0 0 0 127 0" result="hardAlpha"/>
<feOffset dy="4"/>
<feGaussianBlur stdDeviation="2.55"/>
<feComposite in2="hardAlpha" operator="out"/>
<feColorMatrix type="matrix" values="0 0 0 0 0 0 0 0 0 0 0 0 0 0 0 0 0 0 0.25 0"/>
<feBlend mode="normal" in2="BackgroundImageFix" result="effect1_dropShadow_328_28"/>
<feBlend mode="normal" in="SourceGraphic" in2="effect1_dropShadow_328_28" result="shape"/>
</filter>
</defs>
</svg>
